<svg width="30" height="33" viewBox="0 0 30 33" fill="none" xmlns="http://www.w3.org/2000/svg">
<path fill-rule="evenodd" clip-rule="evenodd" d="M21.5934 6.90542C21.5934 10.7192 18.5017 13.8108 14.688 13.8108C10.8742 13.8108 7.78256 10.7192 7.78256 6.90542C7.78256 3.09166 10.8742 0 14.688 0C18.5017 0 21.5934 3.09166 21.5934 6.90542ZM20.3924 6.90542C20.3924 10.0559 17.8385 12.6099 14.688 12.6099C11.5375 12.6099 8.98348 10.0559 8.98348 6.90542C8.98348 3.75492 11.5375 1.20094 14.688 1.20094C17.8385 1.20094 20.3924 3.75492 20.3924 6.90542ZM15 18.0141C6.91032 18.0141 0.315195 24.413 0 32.4255H1.20194C1.5163 25.0765 7.57362 19.215 15 19.215C22.4263 19.215 28.4836 25.0765 28.798 32.4255H30C29.6848 24.413 23.0897 18.0141 15 18.0141Z" fill="#545454"/>
</svg>
