<svg width="63" height="11" viewBox="0 0 63 11" fill="none" xmlns="http://www.w3.org/2000/svg">
<path d="M2.3877 7.76074C2.52116 7.76074 2.64486 7.74121 2.75879 7.70215C2.87272 7.65983 2.97038 7.60449 3.05176 7.53613C3.13639 7.46777 3.2015 7.38965 3.24707 7.30176C3.29264 7.21061 3.31543 7.11784 3.31543 7.02344C3.31543 6.87044 3.27637 6.73698 3.19824 6.62305C3.12337 6.50911 3.02246 6.4082 2.89551 6.32031C2.77181 6.22917 2.63021 6.14616 2.4707 6.07129C2.3112 5.99642 2.14844 5.91992 1.98242 5.8418C1.81641 5.76042 1.65365 5.67578 1.49414 5.58789C1.33464 5.49674 1.19141 5.39095 1.06445 5.27051C0.940755 5.15007 0.839844 5.01172 0.761719 4.85547C0.686849 4.69596 0.649414 4.51042 0.649414 4.29883C0.649414 4.10026 0.691732 3.91634 0.776367 3.74707C0.861003 3.57454 0.97819 3.42643 1.12793 3.30273C1.28092 3.17904 1.46159 3.08301 1.66992 3.01465C1.87826 2.94303 2.10612 2.90723 2.35352 2.90723C2.51953 2.90723 2.67415 2.91862 2.81738 2.94141C2.96061 2.96419 3.10059 3.00814 3.2373 3.07324C3.37728 3.13835 3.51562 3.23275 3.65234 3.35645C3.78906 3.47689 3.93392 3.63477 4.08691 3.83008L3.7207 4.15723C3.5319 3.84798 3.32031 3.61849 3.08594 3.46875C2.85482 3.31576 2.60742 3.23926 2.34375 3.23926C2.20052 3.23926 2.07031 3.25716 1.95312 3.29297C1.83594 3.32552 1.73503 3.37272 1.65039 3.43457C1.56901 3.49316 1.50391 3.56315 1.45508 3.64453C1.40951 3.72591 1.38672 3.81217 1.38672 3.90332C1.38672 4.05306 1.42741 4.18327 1.50879 4.29395C1.59342 4.40462 1.7041 4.50553 1.84082 4.59668C1.97754 4.68457 2.13216 4.76595 2.30469 4.84082C2.48047 4.91569 2.65788 4.99219 2.83691 5.07031C3.01921 5.14844 3.19661 5.23307 3.36914 5.32422C3.54492 5.41536 3.70117 5.52116 3.83789 5.6416C3.97461 5.75879 4.08366 5.89551 4.16504 6.05176C4.24967 6.20801 4.29199 6.3903 4.29199 6.59863C4.29199 6.81022 4.25293 7.00879 4.1748 7.19434C4.09668 7.37663 3.97786 7.53613 3.81836 7.67285C3.66211 7.80632 3.46517 7.91211 3.22754 7.99023C2.98991 8.06836 2.70996 8.10742 2.3877 8.10742C2.24121 8.10742 2.08984 8.09603 1.93359 8.07324C1.7806 8.05046 1.62598 8.00651 1.46973 7.94141C1.31348 7.87305 1.15723 7.77865 1.00098 7.6582C0.844727 7.53776 0.691732 7.37988 0.541992 7.18457L0.947266 6.81836C1.06771 6.98763 1.18327 7.13249 1.29395 7.25293C1.40462 7.37012 1.51693 7.46777 1.63086 7.5459C1.74805 7.62077 1.86686 7.67611 1.9873 7.71191C2.111 7.74447 2.24447 7.76074 2.3877 7.76074ZM5.78125 3.19043L6.47949 2.90723H6.76758V8H5.78125V3.19043ZM5.70312 1.08594C5.70312 1.00781 5.71777 0.93457 5.74707 0.866211C5.77637 0.797852 5.81706 0.73763 5.86914 0.685547C5.92122 0.633464 5.98145 0.592773 6.0498 0.563477C6.11816 0.53418 6.19141 0.519531 6.26953 0.519531C6.34766 0.519531 6.4209 0.53418 6.48926 0.563477C6.55762 0.592773 6.61784 0.633464 6.66992 0.685547C6.72201 0.73763 6.7627 0.797852 6.79199 0.866211C6.82129 0.93457 6.83594 1.00781 6.83594 1.08594C6.83594 1.16406 6.82129 1.2373 6.79199 1.30566C6.7627 1.37402 6.72201 1.43424 6.66992 1.48633C6.61784 1.53841 6.55762 1.5791 6.48926 1.6084C6.4209 1.6377 6.34766 1.65234 6.26953 1.65234C6.19141 1.65234 6.11816 1.6377 6.0498 1.6084C5.98145 1.5791 5.92122 1.53841 5.86914 1.48633C5.81706 1.43424 5.77637 1.37402 5.74707 1.30566C5.71777 1.2373 5.70312 1.16406 5.70312 1.08594ZM13.3008 3.26367V3.68359H12.3535C12.4479 3.81706 12.5244 3.97005 12.583 4.14258C12.6449 4.31185 12.6758 4.47949 12.6758 4.64551C12.6758 4.90592 12.6188 5.14193 12.5049 5.35352C12.391 5.5651 12.2314 5.7474 12.0264 5.90039C11.8245 6.05339 11.582 6.1722 11.2988 6.25684C11.0156 6.33822 10.7031 6.37891 10.3613 6.37891C10.2344 6.37891 10.1042 6.36914 9.9707 6.34961C9.84049 6.33008 9.72656 6.30404 9.62891 6.27148C9.53451 6.34961 9.45475 6.44076 9.38965 6.54492C9.32454 6.64583 9.29199 6.74837 9.29199 6.85254C9.29199 6.95345 9.3457 7.0332 9.45312 7.0918C9.5638 7.15039 9.72005 7.18457 9.92188 7.19434L11.7676 7.27734C12.0638 7.29036 12.3096 7.32617 12.5049 7.38477C12.7035 7.4401 12.8613 7.5166 12.9785 7.61426C13.0957 7.70866 13.1787 7.82096 13.2275 7.95117C13.2764 8.08138 13.3008 8.22786 13.3008 8.39062C13.3008 8.68034 13.2324 8.94238 13.0957 9.17676C12.9622 9.41439 12.7686 9.61621 12.5146 9.78223C12.2607 9.94824 11.9499 10.0768 11.582 10.168C11.2174 10.2591 10.804 10.3047 10.3418 10.3047C9.92839 10.3047 9.56706 10.2803 9.25781 10.2314C8.94857 10.1826 8.69141 10.1126 8.48633 10.0215C8.28125 9.93359 8.12826 9.82617 8.02734 9.69922C7.92643 9.57552 7.87598 9.43555 7.87598 9.2793C7.87598 9.14258 7.91016 9.01074 7.97852 8.88379C8.04688 8.76009 8.13477 8.63965 8.24219 8.52246C8.34961 8.40853 8.46842 8.29785 8.59863 8.19043C8.72884 8.08301 8.85742 7.98047 8.98438 7.88281C8.89323 7.85352 8.80697 7.81934 8.72559 7.78027C8.64746 7.73796 8.5791 7.69076 8.52051 7.63867C8.46191 7.58659 8.41634 7.53125 8.38379 7.47266C8.35124 7.41081 8.33496 7.3457 8.33496 7.27734C8.33496 7.17643 8.361 7.07227 8.41309 6.96484C8.46842 6.85417 8.54167 6.75 8.63281 6.65234C8.72721 6.55143 8.83464 6.46029 8.95508 6.37891C9.07878 6.29427 9.21061 6.22754 9.35059 6.17871C9.0153 6.03548 8.75163 5.83691 8.55957 5.58301C8.37077 5.32585 8.27637 5.03125 8.27637 4.69922C8.27637 4.45508 8.33171 4.22396 8.44238 4.00586C8.55632 3.78776 8.71257 3.59733 8.91113 3.43457C9.1097 3.27181 9.34082 3.14323 9.60449 3.04883C9.87142 2.95443 10.1595 2.90723 10.4688 2.90723C10.6185 2.90723 10.765 2.91699 10.9082 2.93652C11.0547 2.95605 11.1898 2.9821 11.3135 3.01465C11.4404 3.0472 11.5511 3.08464 11.6455 3.12695C11.7432 3.16927 11.8197 3.21484 11.875 3.26367H13.3008ZM9.29199 7.96094C9.21712 8.01628 9.15202 8.07812 9.09668 8.14648C9.04134 8.21484 8.99414 8.28646 8.95508 8.36133C8.91602 8.4362 8.88672 8.51107 8.86719 8.58594C8.84766 8.66406 8.83789 8.7373 8.83789 8.80566C8.83789 8.91634 8.87695 9.02214 8.95508 9.12305C9.0332 9.22396 9.15039 9.31348 9.30664 9.3916C9.46289 9.46973 9.6582 9.53158 9.89258 9.57715C10.1302 9.62272 10.4053 9.64551 10.7178 9.64551C11.0498 9.64551 11.346 9.61947 11.6064 9.56738C11.8701 9.5153 12.0931 9.44531 12.2754 9.35742C12.4609 9.27279 12.6009 9.17676 12.6953 9.06934C12.793 8.96517 12.8418 8.85938 12.8418 8.75195C12.8418 8.64128 12.8125 8.54525 12.7539 8.46387C12.6986 8.38249 12.6172 8.31576 12.5098 8.26367C12.4023 8.21159 12.2721 8.17253 12.1191 8.14648C11.9661 8.12044 11.7936 8.10742 11.6016 8.10742C11.3607 8.10742 11.1182 8.10091 10.874 8.08789C10.6299 8.07812 10.402 8.0651 10.1904 8.04883C9.97884 8.03581 9.79329 8.01953 9.63379 8C9.47428 7.98372 9.36035 7.9707 9.29199 7.96094ZM10.5273 6.12012C10.6673 6.12012 10.8024 6.08919 10.9326 6.02734C11.0628 5.96224 11.1768 5.87435 11.2744 5.76367C11.3753 5.65299 11.4551 5.52441 11.5137 5.37793C11.5723 5.22819 11.6016 5.06706 11.6016 4.89453C11.6016 4.65039 11.5674 4.42415 11.499 4.21582C11.4339 4.00423 11.3444 3.82194 11.2305 3.66895C11.1165 3.5127 10.9831 3.39062 10.8301 3.30273C10.6771 3.21484 10.516 3.1709 10.3467 3.1709C10.1807 3.1709 10.0358 3.20508 9.91211 3.27344C9.79167 3.3418 9.69238 3.43783 9.61426 3.56152C9.53613 3.68197 9.47754 3.8252 9.43848 3.99121C9.40267 4.15397 9.38477 4.32975 9.38477 4.51855C9.38477 4.74316 9.41243 4.95312 9.46777 5.14844C9.52311 5.34375 9.60124 5.51465 9.70215 5.66113C9.80306 5.80436 9.9235 5.91667 10.0635 5.99805C10.2035 6.07943 10.3581 6.12012 10.5273 6.12012ZM14.9414 2.90723H15.2246V3.91797C15.5273 3.57943 15.8415 3.32715 16.167 3.16113C16.4925 2.99186 16.8229 2.90723 17.1582 2.90723C17.334 2.90723 17.4967 2.94629 17.6465 3.02441C17.7995 3.10254 17.9329 3.20996 18.0469 3.34668C18.1608 3.4834 18.2503 3.64453 18.3154 3.83008C18.3805 4.01237 18.4131 4.20768 18.4131 4.41602V8H17.4219V4.58691C17.4219 4.4209 17.4023 4.27604 17.3633 4.15234C17.3242 4.02539 17.2689 3.9196 17.1973 3.83496C17.1257 3.75033 17.041 3.68685 16.9434 3.64453C16.849 3.59896 16.7432 3.57617 16.626 3.57617C16.5218 3.57617 16.4111 3.59408 16.2939 3.62988C16.1768 3.66569 16.0563 3.71615 15.9326 3.78125C15.8122 3.8431 15.6917 3.91797 15.5713 4.00586C15.4508 4.09375 15.3353 4.19141 15.2246 4.29883V8H14.2285V3.18555L14.9414 2.90723ZM23.2227 3V6.55957C23.2227 6.68327 23.2503 6.80046 23.3057 6.91113C23.3643 7.02181 23.444 7.11784 23.5449 7.19922C23.6458 7.2806 23.7614 7.3457 23.8916 7.39453C24.0251 7.4401 24.1683 7.46289 24.3213 7.46289C24.4189 7.46289 24.5231 7.44173 24.6338 7.39941C24.7477 7.3571 24.8584 7.30013 24.9658 7.22852C25.0732 7.15365 25.1725 7.06738 25.2637 6.96973C25.3581 6.86882 25.4378 6.76302 25.5029 6.65234V3H26.4893V8H25.5029V7.0625C25.415 7.20573 25.3044 7.34082 25.1709 7.46777C25.0407 7.59473 24.8991 7.7054 24.7461 7.7998C24.5931 7.89421 24.4352 7.96908 24.2725 8.02441C24.1097 8.07975 23.9551 8.10742 23.8086 8.10742C23.5905 8.10742 23.3854 8.06673 23.1934 7.98535C23.0013 7.90397 22.8337 7.79329 22.6904 7.65332C22.5472 7.51335 22.4333 7.34896 22.3486 7.16016C22.2673 6.97135 22.2266 6.77116 22.2266 6.55957V3H23.2227ZM28.9648 2.90723H29.248V4.03027C29.349 3.90332 29.4596 3.77311 29.5801 3.63965C29.7038 3.50618 29.8389 3.38574 29.9854 3.27832C30.1351 3.16764 30.2995 3.07812 30.4785 3.00977C30.6576 2.94141 30.8529 2.90723 31.0645 2.90723C31.3607 2.90723 31.6292 2.96908 31.8701 3.09277C32.111 3.21647 32.3161 3.38411 32.4854 3.5957C32.6579 3.80729 32.7897 4.05632 32.8809 4.34277C32.9753 4.62598 33.0225 4.92871 33.0225 5.25098C33.0225 5.66439 32.9655 6.04688 32.8516 6.39844C32.7376 6.74674 32.5749 7.04785 32.3633 7.30176C32.1517 7.55566 31.8945 7.75423 31.5918 7.89746C31.2891 8.03743 30.9505 8.10742 30.5762 8.10742C30.4395 8.10742 30.3109 8.09928 30.1904 8.08301C30.0732 8.06999 29.9609 8.04883 29.8535 8.01953C29.7493 7.99023 29.6468 7.9528 29.5459 7.90723C29.4482 7.86165 29.349 7.80632 29.248 7.74121V10.1045H28.252V3.18555L28.9648 2.90723ZM29.248 6.65234C29.248 6.80208 29.2806 6.94368 29.3457 7.07715C29.4108 7.20736 29.502 7.32292 29.6191 7.42383C29.7363 7.52148 29.8763 7.59961 30.0391 7.6582C30.2018 7.71354 30.3809 7.74121 30.5762 7.74121C30.7617 7.74121 30.9359 7.69401 31.0986 7.59961C31.2646 7.50521 31.4079 7.37174 31.5283 7.19922C31.652 7.02344 31.748 6.8151 31.8164 6.57422C31.888 6.33333 31.9238 6.06641 31.9238 5.77344C31.9238 5.4056 31.8913 5.08496 31.8262 4.81152C31.7611 4.53483 31.6699 4.30534 31.5527 4.12305C31.4388 3.94076 31.3021 3.80404 31.1426 3.71289C30.9863 3.62174 30.8138 3.57617 30.625 3.57617C30.4818 3.57617 30.3434 3.59896 30.21 3.64453C30.0798 3.68685 29.9561 3.74544 29.8389 3.82031C29.7217 3.89518 29.6126 3.98145 29.5117 4.0791C29.4141 4.17676 29.3262 4.2793 29.248 4.38672V6.65234ZM37.7393 1.37891H38.1836L36.0107 8.15137H35.5664L37.7393 1.37891ZM42.0508 8H41.0547V0.734375L41.7627 0.451172H42.0508V8ZM46.1133 8.10742C45.7292 8.10742 45.376 8.04069 45.0537 7.90723C44.7314 7.77376 44.4531 7.5931 44.2188 7.36523C43.9844 7.13411 43.8005 6.86556 43.667 6.55957C43.5368 6.25033 43.4717 5.91992 43.4717 5.56836C43.4717 5.20052 43.5368 4.85547 43.667 4.5332C43.8005 4.20768 43.9844 3.92448 44.2188 3.68359C44.4531 3.44271 44.7314 3.25391 45.0537 3.11719C45.376 2.97721 45.7292 2.90723 46.1133 2.90723C46.4941 2.90723 46.8441 2.9707 47.1631 3.09766C47.4854 3.22461 47.7637 3.39876 47.998 3.62012C48.2324 3.84147 48.4147 4.10189 48.5449 4.40137C48.6784 4.69759 48.7451 5.0166 48.7451 5.3584C48.7451 5.736 48.6784 6.09245 48.5449 6.42773C48.4147 6.75977 48.2324 7.05111 47.998 7.30176C47.7637 7.54915 47.4854 7.74609 47.1631 7.89258C46.8441 8.03581 46.4941 8.10742 46.1133 8.10742ZM46.3037 7.74121C46.499 7.74121 46.6781 7.69076 46.8408 7.58984C47.0036 7.48893 47.1436 7.35384 47.2607 7.18457C47.3779 7.01204 47.4691 6.81348 47.5342 6.58887C47.5993 6.36426 47.6318 6.12663 47.6318 5.87598C47.6318 5.51465 47.6009 5.17611 47.5391 4.86035C47.4772 4.5446 47.3763 4.26953 47.2363 4.03516C47.0964 3.80078 46.9141 3.61686 46.6895 3.4834C46.4648 3.34668 46.1914 3.27832 45.8691 3.27832C45.7031 3.27832 45.542 3.32715 45.3857 3.4248C45.2295 3.51921 45.0911 3.64941 44.9707 3.81543C44.8535 3.98145 44.7591 4.17676 44.6875 4.40137C44.6159 4.62272 44.5801 4.85872 44.5801 5.10938C44.5801 5.47396 44.6175 5.81576 44.6924 6.13477C44.7705 6.45378 44.8828 6.7321 45.0293 6.96973C45.179 7.20736 45.3597 7.39616 45.5713 7.53613C45.7861 7.67285 46.0303 7.74121 46.3037 7.74121ZM54.8633 3.26367V3.68359H53.916C54.0104 3.81706 54.0869 3.97005 54.1455 4.14258C54.2074 4.31185 54.2383 4.47949 54.2383 4.64551C54.2383 4.90592 54.1813 5.14193 54.0674 5.35352C53.9535 5.5651 53.7939 5.7474 53.5889 5.90039C53.387 6.05339 53.1445 6.1722 52.8613 6.25684C52.5781 6.33822 52.2656 6.37891 51.9238 6.37891C51.7969 6.37891 51.6667 6.36914 51.5332 6.34961C51.403 6.33008 51.2891 6.30404 51.1914 6.27148C51.097 6.34961 51.0173 6.44076 50.9521 6.54492C50.887 6.64583 50.8545 6.74837 50.8545 6.85254C50.8545 6.95345 50.9082 7.0332 51.0156 7.0918C51.1263 7.15039 51.2826 7.18457 51.4844 7.19434L53.3301 7.27734C53.6263 7.29036 53.8721 7.32617 54.0674 7.38477C54.266 7.4401 54.4238 7.5166 54.541 7.61426C54.6582 7.70866 54.7412 7.82096 54.79 7.95117C54.8389 8.08138 54.8633 8.22786 54.8633 8.39062C54.8633 8.68034 54.7949 8.94238 54.6582 9.17676C54.5247 9.41439 54.3311 9.61621 54.0771 9.78223C53.8232 9.94824 53.5124 10.0768 53.1445 10.168C52.7799 10.2591 52.3665 10.3047 51.9043 10.3047C51.4909 10.3047 51.1296 10.2803 50.8203 10.2314C50.5111 10.1826 50.2539 10.1126 50.0488 10.0215C49.8438 9.93359 49.6908 9.82617 49.5898 9.69922C49.4889 9.57552 49.4385 9.43555 49.4385 9.2793C49.4385 9.14258 49.4727 9.01074 49.541 8.88379C49.6094 8.76009 49.6973 8.63965 49.8047 8.52246C49.9121 8.40853 50.0309 8.29785 50.1611 8.19043C50.2913 8.08301 50.4199 7.98047 50.5469 7.88281C50.4557 7.85352 50.3695 7.81934 50.2881 7.78027C50.21 7.73796 50.1416 7.69076 50.083 7.63867C50.0244 7.58659 49.9788 7.53125 49.9463 7.47266C49.9137 7.41081 49.8975 7.3457 49.8975 7.27734C49.8975 7.17643 49.9235 7.07227 49.9756 6.96484C50.0309 6.85417 50.1042 6.75 50.1953 6.65234C50.2897 6.55143 50.3971 6.46029 50.5176 6.37891C50.6413 6.29427 50.7731 6.22754 50.9131 6.17871C50.5778 6.03548 50.3141 5.83691 50.1221 5.58301C49.9333 5.32585 49.8389 5.03125 49.8389 4.69922C49.8389 4.45508 49.8942 4.22396 50.0049 4.00586C50.1188 3.78776 50.2751 3.59733 50.4736 3.43457C50.6722 3.27181 50.9033 3.14323 51.167 3.04883C51.4339 2.95443 51.722 2.90723 52.0312 2.90723C52.181 2.90723 52.3275 2.91699 52.4707 2.93652C52.6172 2.95605 52.7523 2.9821 52.876 3.01465C53.0029 3.0472 53.1136 3.08464 53.208 3.12695C53.3057 3.16927 53.3822 3.21484 53.4375 3.26367H54.8633ZM50.8545 7.96094C50.7796 8.01628 50.7145 8.07812 50.6592 8.14648C50.6038 8.21484 50.5566 8.28646 50.5176 8.36133C50.4785 8.4362 50.4492 8.51107 50.4297 8.58594C50.4102 8.66406 50.4004 8.7373 50.4004 8.80566C50.4004 8.91634 50.4395 9.02214 50.5176 9.12305C50.5957 9.22396 50.7129 9.31348 50.8691 9.3916C51.0254 9.46973 51.2207 9.53158 51.4551 9.57715C51.6927 9.62272 51.9678 9.64551 52.2803 9.64551C52.6123 9.64551 52.9085 9.61947 53.1689 9.56738C53.4326 9.5153 53.6556 9.44531 53.8379 9.35742C54.0234 9.27279 54.1634 9.17676 54.2578 9.06934C54.3555 8.96517 54.4043 8.85938 54.4043 8.75195C54.4043 8.64128 54.375 8.54525 54.3164 8.46387C54.2611 8.38249 54.1797 8.31576 54.0723 8.26367C53.9648 8.21159 53.8346 8.17253 53.6816 8.14648C53.5286 8.12044 53.3561 8.10742 53.1641 8.10742C52.9232 8.10742 52.6807 8.10091 52.4365 8.08789C52.1924 8.07812 51.9645 8.0651 51.7529 8.04883C51.5413 8.03581 51.3558 8.01953 51.1963 8C51.0368 7.98372 50.9229 7.9707 50.8545 7.96094ZM52.0898 6.12012C52.2298 6.12012 52.3649 6.08919 52.4951 6.02734C52.6253 5.96224 52.7393 5.87435 52.8369 5.76367C52.9378 5.65299 53.0176 5.52441 53.0762 5.37793C53.1348 5.22819 53.1641 5.06706 53.1641 4.89453C53.1641 4.65039 53.1299 4.42415 53.0615 4.21582C52.9964 4.00423 52.9069 3.82194 52.793 3.66895C52.679 3.5127 52.5456 3.39062 52.3926 3.30273C52.2396 3.21484 52.0785 3.1709 51.9092 3.1709C51.7432 3.1709 51.5983 3.20508 51.4746 3.27344C51.3542 3.3418 51.2549 3.43783 51.1768 3.56152C51.0986 3.68197 51.04 3.8252 51.001 3.99121C50.9652 4.15397 50.9473 4.32975 50.9473 4.51855C50.9473 4.74316 50.9749 4.95312 51.0303 5.14844C51.0856 5.34375 51.1637 5.51465 51.2646 5.66113C51.3656 5.80436 51.486 5.91667 51.626 5.99805C51.766 6.07943 51.9206 6.12012 52.0898 6.12012ZM55.8691 3.19043L56.5674 2.90723H56.8555V8H55.8691V3.19043ZM55.791 1.08594C55.791 1.00781 55.8057 0.93457 55.835 0.866211C55.8643 0.797852 55.9049 0.73763 55.957 0.685547C56.0091 0.633464 56.0693 0.592773 56.1377 0.563477C56.2061 0.53418 56.2793 0.519531 56.3574 0.519531C56.4355 0.519531 56.5088 0.53418 56.5771 0.563477C56.6455 0.592773 56.7057 0.633464 56.7578 0.685547C56.8099 0.73763 56.8506 0.797852 56.8799 0.866211C56.9092 0.93457 56.9238 1.00781 56.9238 1.08594C56.9238 1.16406 56.9092 1.2373 56.8799 1.30566C56.8506 1.37402 56.8099 1.43424 56.7578 1.48633C56.7057 1.53841 56.6455 1.5791 56.5771 1.6084C56.5088 1.6377 56.4355 1.65234 56.3574 1.65234C56.2793 1.65234 56.2061 1.6377 56.1377 1.6084C56.0693 1.5791 56.0091 1.53841 55.957 1.48633C55.9049 1.43424 55.8643 1.37402 55.835 1.30566C55.8057 1.2373 55.791 1.16406 55.791 1.08594ZM59.3945 2.90723H59.6777V3.91797C59.9805 3.57943 60.2946 3.32715 60.6201 3.16113C60.9456 2.99186 61.276 2.90723 61.6113 2.90723C61.7871 2.90723 61.9499 2.94629 62.0996 3.02441C62.2526 3.10254 62.3861 3.20996 62.5 3.34668C62.6139 3.4834 62.7035 3.64453 62.7686 3.83008C62.8337 4.01237 62.8662 4.20768 62.8662 4.41602V8H61.875V4.58691C61.875 4.4209 61.8555 4.27604 61.8164 4.15234C61.7773 4.02539 61.722 3.9196 61.6504 3.83496C61.5788 3.75033 61.4941 3.68685 61.3965 3.64453C61.3021 3.59896 61.1963 3.57617 61.0791 3.57617C60.9749 3.57617 60.8643 3.59408 60.7471 3.62988C60.6299 3.66569 60.5094 3.71615 60.3857 3.78125C60.2653 3.8431 60.1449 3.91797 60.0244 4.00586C59.904 4.09375 59.7884 4.19141 59.6777 4.29883V8H58.6816V3.18555L59.3945 2.90723Z" fill="black"/>
</svg>
